# Blender 3.6.4
# www.blender.org
mtllib Stone.mtl
o Icosphere.006
v -25.410172 1.064426 54.801540
v -26.564688 1.064426 52.448822
v -24.683912 1.064426 50.623787
v -22.366983 1.064426 51.848545
v -22.815830 1.064416 54.430553
v -23.270277 -0.050252 55.068214
v -22.164789 -0.050252 53.995491
v -26.157057 -0.050252 54.566383
v -24.795200 -0.050252 55.286285
v -26.571836 -0.050252 51.665817
v -26.835674 -0.050252 53.183491
v -23.941425 -0.050252 50.375023
v -25.466349 -0.050252 50.593094
v -21.900951 -0.050252 52.477818
v -22.579569 -0.050252 51.094925
v -24.980698 2.069972 53.989101
v -23.455788 2.069965 53.771049
v -23.191971 2.069972 52.253387
v -30.409615 3.833117 64.387665
v -39.092930 3.833113 61.566235
v -39.092926 3.833113 52.436119
v -30.409615 3.833117 49.614689
v -25.042971 3.833080 57.001175
v -24.551218 -0.050252 59.684441
v -24.551218 -0.050252 54.317909
v -32.809589 -0.050252 65.684525
v -27.705641 -0.050252 64.026154
v -41.067963 -0.050252 59.684441
v -37.913544 -0.050252 64.026154
v -37.913540 -0.050252 49.976200
v -41.067963 -0.050252 54.317909
v -27.705639 -0.050252 49.976196
v -32.809589 -0.050252 48.317822
v -31.398932 7.336281 61.342812
v -28.244493 7.336258 57.001175
v -31.398932 7.336281 52.659542
v -33.851448 1.064426 50.471447
v -35.005966 1.064426 48.118732
v -33.125187 1.064426 46.293697
v -30.808260 1.064426 47.518452
v -31.257107 1.064416 50.100464
v -31.711555 -0.050252 50.738125
v -30.606066 -0.050252 49.665401
v -34.598335 -0.050252 50.236294
v -33.236477 -0.050252 50.956196
v -35.013115 -0.050252 47.335724
v -35.276951 -0.050252 48.853397
v -32.382702 -0.050252 46.044930
v -33.907623 -0.050252 46.263000
v -30.342228 -0.050252 48.147728
v -31.020845 -0.050252 46.764832
v -33.421974 2.069972 49.659012
v -31.897064 2.069965 49.440960
v -31.633247 2.069972 47.923298
v -36.646568 0.436895 48.789562
v -35.942036 0.436895 47.886559
v -34.865520 0.436895 48.277557
v -34.904716 0.436895 49.422218
v -36.005470 0.436891 49.738663
v -36.342911 -0.050252 49.681732
v -35.710152 -0.050252 49.911556
v -36.696701 -0.050252 48.451046
v -36.719742 -0.050252 49.123863
v -35.635574 -0.050252 47.734272
v -36.282585 -0.050252 47.920269
v -34.625984 -0.050252 48.521965
v -35.002819 -0.050252 47.964096
v -35.063141 -0.050252 49.725555
v -34.649025 -0.050252 49.194782
v -36.245190 0.876348 48.803310
v -35.868362 0.876345 49.361176
v -35.221359 0.876348 49.175175
v -29.063377 0.436895 46.644737
v -28.358845 0.436895 45.741734
v -27.282330 0.436895 46.132732
v -27.321524 0.436895 47.277393
v -28.422279 0.436891 47.593838
v -28.759718 -0.050252 47.536907
v -28.126959 -0.050252 47.766731
v -29.113510 -0.050252 46.306221
v -29.136551 -0.050252 46.979042
v -28.052383 -0.050252 45.589447
v -28.699396 -0.050252 45.775444
v -27.042791 -0.050252 46.377136
v -27.419626 -0.050252 45.819271
v -27.479946 -0.050252 47.580734
v -27.065834 -0.050252 47.049957
v -28.661999 0.876348 46.658485
v -28.285173 0.876345 47.216351
v -27.638168 0.876348 47.030350
v -41.122147 0.436895 50.289288
v -40.417610 0.436895 49.386284
v -39.341095 0.436895 49.777283
v -39.380291 0.436895 50.921944
v -40.481045 0.436891 51.238388
v -40.818481 -0.050252 51.181458
v -40.185726 -0.050252 51.411282
v -41.172276 -0.050252 49.950775
v -41.195320 -0.050252 50.623589
v -40.111153 -0.050252 49.233997
v -40.758163 -0.050252 49.419998
v -39.101559 -0.050252 50.021690
v -39.478394 -0.050252 49.463821
v -39.538712 -0.050252 51.225285
v -39.124599 -0.050252 50.694508
v -40.720764 0.876348 50.303036
v -40.343941 0.876345 50.860901
v -39.696934 0.876348 50.674900
vn -0.6207 0.4533 -0.6397
vn 0.8381 0.5257 0.1457
vn -0.8002 0.4533 0.3927
vn 0.1204 0.5257 0.8421
vn 0.8906 0.1256 -0.4370
vn -0.1404 0.1256 -0.9821
vn -0.9774 0.1256 -0.1699
vn -0.4636 0.1256 0.8771
vn 0.6909 0.1256 0.7120
vn -0.0000 -1.0000 -0.0000
vn 0.4166 0.4533 -0.7880
vn 0.0062 1.0000 0.0063
vn -0.0000 1.0000 -0.0000
vn -0.7219 0.5945 0.3542
vn 0.3758 0.5945 -0.7109
vn -0.8913 0.4533 -0.0000
vn 0.6882 0.5257 -0.5000
vn -0.2754 0.4533 0.8477
vn 0.6882 0.5257 0.5000
vn 0.3066 0.1256 -0.9435
vn -0.8026 0.1256 -0.5831
vn -0.8026 0.1256 0.5831
vn 0.3066 0.1256 0.9435
vn 0.9921 0.1256 -0.0000
vn -0.2754 0.4533 -0.8477
vn -0.4144 0.9101 -0.0000
vn -0.2485 0.5945 0.7647
vn -0.2485 0.5945 -0.7647
vn 0.3043 0.4533 -0.8378
vn 0.2350 0.5257 0.8175
vn -0.7028 0.4533 -0.5483
vn -0.7049 0.5257 0.4762
vn 0.7822 0.1256 0.6103
vn 0.8221 0.1256 -0.5553
vn -0.2741 0.1256 -0.9535
vn -0.9915 0.1256 -0.0340
vn -0.3387 0.1256 0.9325
vn 0.8908 0.4533 0.0305
vn -0.0030 1.0000 0.0083
vn -0.6340 0.5945 -0.4946
vn 0.8036 0.5945 0.0275
vt 0.772727 0.236191
vt 0.863636 0.236191
vt 0.909091 0.314921
vt 0.727273 0.314921
vt 0.409092 0.236191
vt 0.500000 0.236191
vt 0.545455 0.314921
vt 0.500000 0.393651
vt 0.409092 0.393651
vt 0.363637 0.314921
vt 0.045455 0.236191
vt 0.136365 0.236191
vt 0.181819 0.314921
vt 0.227273 0.236191
vt 0.318182 0.236191
vt 0.318182 0.393651
vt 0.227273 0.393651
vt 0.590909 0.236191
vt 0.681818 0.236191
vt 0.954545 0.236191
vt 0.000000 0.000000
s 0
f 13/1/1 10/2/1 2/3/1 3/4/1
f 7/5/2 14/6/2 4/7/2 18/8/2 17/9/2 5/10/2
f 11/11/3 8/12/3 1/13/3 2/3/3
f 1/13/4 9/14/4 6/15/4 5/10/4 17/16/4 16/17/4
f 14/6/5 15/18/5 4/7/5
f 12/19/6 13/1/6 3/4/6
f 10/2/7 11/20/7 2/3/7
f 8/12/8 9/14/8 1/13/8
f 6/15/9 7/5/9 5/10/9
f 7/5/10 6/15/10 9/14/10 8/12/10 11/11/10 10/2/10 13/1/10 12/19/10 15/18/10 14/6/10
f 15/18/11 12/19/11 3/4/11 4/7/11
f 7/21/12 18/21/12 3/4/12 2/3/12 16/21/12
f 17/16/13 18/8/13 16/17/13
f 1/13/14 16/21/14 2/3/14
f 18/21/15 4/7/15 3/4/15
f 31/1/16 28/2/16 20/3/16 21/4/16
f 25/5/17 32/6/17 22/7/17 36/8/17 35/9/17 23/10/17
f 29/11/18 26/12/18 19/13/18 20/3/18
f 19/13/19 27/14/19 24/15/19 23/10/19 35/16/19 34/17/19
f 32/6/20 33/18/20 22/7/20
f 30/19/21 31/1/21 21/4/21
f 28/2/22 29/20/22 20/3/22
f 26/12/23 27/14/23 19/13/23
f 24/15/24 25/5/24 23/10/24
f 25/5/10 24/15/10 27/14/10 26/12/10 29/11/10 28/2/10 31/1/10 30/19/10 33/18/10 32/6/10
f 33/18/25 30/19/25 21/4/25 22/7/25
f 20/3/26 34/21/26 36/8/26 21/4/26
f 35/16/13 36/8/13 34/17/13
f 19/13/27 34/21/27 20/3/27
f 36/21/28 22/7/28 21/4/28
f 49/1/1 46/2/1 38/3/1 39/4/1
f 43/5/2 50/6/2 40/7/2 54/8/2 53/9/2 41/10/2
f 47/11/3 44/12/3 37/13/3 38/3/3
f 37/13/4 45/14/4 42/15/4 41/10/4 53/16/4 52/17/4
f 50/6/5 51/18/5 40/7/5
f 48/19/6 49/1/6 39/4/6
f 46/2/7 47/20/7 38/3/7
f 44/12/8 45/14/8 37/13/8
f 42/15/9 43/5/9 41/10/9
f 43/5/10 42/15/10 45/14/10 44/12/10 47/11/10 46/2/10 49/1/10 48/19/10 51/18/10 50/6/10
f 51/18/11 48/19/11 39/4/11 40/7/11
f 43/21/12 54/21/12 39/4/12 38/3/12 52/21/12
f 53/16/13 54/8/13 52/17/13
f 37/13/14 52/21/14 38/3/14
f 54/21/15 40/7/15 39/4/15
f 67/1/29 64/2/29 56/3/29 57/4/29
f 61/5/30 68/6/30 58/7/30 72/8/30 71/9/30 59/10/30
f 65/11/31 62/12/31 55/13/31 56/3/31
f 55/13/32 63/14/32 60/15/32 59/10/32 71/16/32 70/17/32
f 68/6/33 69/18/33 58/7/33
f 66/19/34 67/1/34 57/4/34
f 64/2/35 65/20/35 56/3/35
f 62/12/36 63/14/36 55/13/36
f 60/15/37 61/5/37 59/10/37
f 61/5/10 60/15/10 63/14/10 62/12/10 65/11/10 64/2/10 67/1/10 66/19/10 69/18/10 68/6/10
f 69/18/38 66/19/38 57/4/38 58/7/38
f 61/21/39 72/21/39 57/4/39 56/3/39 70/21/39
f 71/16/13 72/8/13 70/17/13
f 55/13/40 70/21/40 56/3/40
f 72/21/41 58/7/41 57/4/41
f 85/1/29 82/2/29 74/3/29 75/4/29
f 79/5/30 86/6/30 76/7/30 90/8/30 89/9/30 77/10/30
f 83/11/31 80/12/31 73/13/31 74/3/31
f 73/13/32 81/14/32 78/15/32 77/10/32 89/16/32 88/17/32
f 86/6/33 87/18/33 76/7/33
f 84/19/34 85/1/34 75/4/34
f 82/2/35 83/20/35 74/3/35
f 80/12/36 81/14/36 73/13/36
f 78/15/37 79/5/37 77/10/37
f 79/5/10 78/15/10 81/14/10 80/12/10 83/11/10 82/2/10 85/1/10 84/19/10 87/18/10 86/6/10
f 87/18/38 84/19/38 75/4/38 76/7/38
f 79/21/39 90/21/39 75/4/39 74/3/39 88/21/39
f 89/16/13 90/8/13 88/17/13
f 73/13/40 88/21/40 74/3/40
f 90/21/41 76/7/41 75/4/41
f 103/1/29 100/2/29 92/3/29 93/4/29
f 97/5/30 104/6/30 94/7/30 108/8/30 107/9/30 95/10/30
f 101/11/31 98/12/31 91/13/31 92/3/31
f 91/13/32 99/14/32 96/15/32 95/10/32 107/16/32 106/17/32
f 104/6/33 105/18/33 94/7/33
f 102/19/34 103/1/34 93/4/34
f 100/2/35 101/20/35 92/3/35
f 98/12/36 99/14/36 91/13/36
f 96/15/37 97/5/37 95/10/37
f 97/5/10 96/15/10 99/14/10 98/12/10 101/11/10 100/2/10 103/1/10 102/19/10 105/18/10 104/6/10
f 105/18/38 102/19/38 93/4/38 94/7/38
f 97/21/39 108/21/39 93/4/39 92/3/39 106/21/39
f 107/16/13 108/8/13 106/17/13
f 91/13/40 106/21/40 92/3/40
f 108/21/41 94/7/41 93/4/41
